<?xml version="1.0" standalone="no"?>
<!DOCTYPE svg PUBLIC "-//W3C//DTD SVG 20010904//EN"
 "http://www.w3.org/TR/2001/REC-SVG-20010904/DTD/svg10.dtd">
<svg version="1.0" xmlns="http://www.w3.org/2000/svg"
 width="734.000000pt" height="677.000000pt" viewBox="0 0 734.000000 677.000000"
 preserveAspectRatio="xMidYMid meet">

<g transform="translate(0.000000,677.000000) scale(0.100000,-0.100000)"
fill="#000000" stroke="none">
<path d="M3606 5708 c-8 -29 -168 -582 -355 -1228 -524 -1813 -532 -1840 -526
-1850 3 -5 22 -12 43 -16 131 -24 255 -119 307 -236 57 -126 42 -291 -36 -404
-94 -137 -290 -207 -450 -160 -183 53 -310 232 -297 419 8 109 40 179 119 257
37 36 79 74 94 85 l27 21 -176 171 c-426 415 -1203 1097 -1876 1646 -94 77
-110 87 -110 67 0 -30 114 -397 126 -406 8 -6 14 -28 14 -48 0 -19 49 -201
109 -403 60 -203 125 -422 144 -488 39 -132 218 -739 437 -1480 78 -264 166
-561 195 -660 51 -174 53 -180 81 -185 15 -3 997 -4 2181 -2 1708 2 2154 5
2158 15 2 6 25 84 50 172 26 88 60 203 75 255 53 177 149 504 245 830 53 179
118 399 145 490 27 91 108 365 180 610 72 245 165 560 207 700 41 140 84 287
94 325 11 39 24 88 30 110 6 22 15 49 19 60 19 46 40 119 35 123 -12 12 -766
-622 -1300 -1093 -235 -207 -637 -580 -768 -713 l-99 -99 49 -36 c137 -101
202 -229 190 -377 -16 -217 -189 -379 -404 -380 -231 -1 -413 180 -413 409 0
121 39 208 129 294 65 62 117 90 199 108 29 6 54 15 58 20 3 5 -22 102 -55
217 -66 226 -379 1308 -486 1677 -218 756 -261 903 -295 1020 -21 72 -43 149
-50 173 -6 23 -15 42 -20 42 -5 0 -15 -24 -24 -52z"/>
</g>
</svg>
